<svg width="16" height="14" viewBox="0 0 16 14" fill="none" xmlns="http://www.w3.org/2000/svg">
<path d="M0 4.07273C0 2.64714 0 1.93435 0.246923 1.38984C0.464123 0.910884 0.810699 0.521479 1.23698 0.277438C1.72159 0 2.35599 0 3.62478 0H11.6673C12.936 0 13.5704 0 14.0551 0.277438C14.4813 0.521479 14.8279 0.910884 15.0451 1.38984C15.2342 1.80689 15.2785 2.32266 15.2889 3.18182H11.3274C10.2718 3.18182 9.74406 3.18182 9.32773 3.37558C8.77262 3.63393 8.33159 4.12946 8.10165 4.75317C7.9292 5.22095 7.9292 5.81397 7.9292 7C7.9292 8.18603 7.9292 8.77905 8.10165 9.24683C8.33159 9.87054 8.77262 10.3661 9.32773 10.6244C9.74406 10.8182 10.2718 10.8182 11.3274 10.8182H15.2889C15.2785 11.6773 15.2342 12.1931 15.0451 12.6102C14.8279 13.0891 14.4813 13.4785 14.0551 13.7226C13.5704 14 12.936 14 11.6673 14H3.62478C2.35599 14 1.72159 14 1.23698 13.7226C0.810699 13.4785 0.464123 13.0891 0.246923 12.6102C0 12.0657 0 11.3529 0 9.92727V4.07273Z" fill="black"/>
<path fill-rule="evenodd" clip-rule="evenodd" d="M8.92035 6.84091C8.92035 5.94992 8.92035 5.50442 9.07468 5.16411C9.21043 4.86476 9.42704 4.62138 9.69347 4.46885C9.99635 4.29545 10.3928 4.29545 11.1858 4.29545H13.7345C14.5275 4.29545 14.924 4.29545 15.2269 4.46885C15.4933 4.62138 15.7099 4.86476 15.8457 5.16411C16 5.50442 16 5.94992 16 6.84091V7.15909C16 8.05008 16 8.49558 15.8457 8.83589C15.7099 9.13524 15.4933 9.37862 15.2269 9.53115C14.924 9.70455 14.5275 9.70455 13.7345 9.70455H11.1858C10.3928 9.70455 9.99635 9.70455 9.69347 9.53115C9.42704 9.37862 9.21043 9.13524 9.07468 8.83589C8.92035 8.49558 8.92035 8.05008 8.92035 7.15909V6.84091ZM12.4602 7C12.4602 7.70291 11.953 8.27273 11.3274 8.27273C10.7018 8.27273 10.1947 7.70291 10.1947 7C10.1947 6.29709 10.7018 5.72727 11.3274 5.72727C11.953 5.72727 12.4602 6.29709 12.4602 7Z" fill="black"/>
</svg>
