<svg width="18" height="12" viewBox="0 0 18 12" fill="none" xmlns="http://www.w3.org/2000/svg">
<path d="M16.4998 1.6H11.2499V0H16.4998V1.6ZM17.7943 9.6C17.4628 10.6376 16.2726 12 13.9686 12C11.6631 12 9.79564 10.6168 9.79564 7.46C9.79564 4.332 11.5394 2.724 13.8951 2.724C16.2066 2.724 17.6181 4.1496 17.9263 6.2648C17.9848 6.6696 18.0081 7.2152 17.9976 7.9768H11.9774C12.0749 10.5456 14.5896 10.6264 15.4183 9.6H17.7943ZM12.0299 6.4H15.7536C15.6748 5.1624 14.9016 4.6248 13.8959 4.6248C12.7964 4.6248 12.1881 5.2392 12.0299 6.4ZM4.84945 11.9904H0V0.0167999H5.21469C9.32165 0.0815999 9.39965 4.372 7.25467 5.5416C9.85039 6.5496 9.93739 11.9904 4.84945 11.9904ZM2.24998 4.8H4.93795C6.81893 4.8 7.11742 2.4 4.70395 2.4H2.24998V4.8ZM4.7932 7.2H2.24998V9.6128H4.7557C7.04692 9.6128 6.90668 7.2 4.7932 7.2Z" fill="#101010"/>
</svg>
