<svg width="15" height="14" viewBox="0 0 15 14" fill="none" xmlns="http://www.w3.org/2000/svg">
<path d="M0.226552 6.54701C1.76109 5.66248 3.47405 4.92425 5.07456 4.18224C7.82806 2.96688 10.5925 1.77258 13.3848 0.660711C13.9281 0.471259 14.9043 0.285984 15 1.1285C14.9476 2.32108 14.732 3.50667 14.5841 4.69227C14.2087 7.2995 13.7749 9.8978 13.3518 12.4964C13.206 13.362 12.1698 13.8101 11.5068 13.2562C9.91339 12.1299 8.30774 11.0146 6.73469 9.8622C6.2194 9.31428 6.69722 8.52745 7.15743 8.13618C8.46981 6.78277 9.8616 5.63289 11.1054 4.20954C11.4409 3.36169 10.4496 4.07623 10.1226 4.29516C8.32596 5.59076 6.57328 6.96547 4.67906 8.10413C3.71149 8.6615 2.58377 8.18517 1.61664 7.87415C0.749477 7.49845 -0.521228 7.11995 0.226465 6.54707L0.226552 6.54701Z" fill="white"/>
</svg>
